<svg width="16" height="16" viewBox="0 0 16 16" fill="none" xmlns="http://www.w3.org/2000/svg">
<path fill-rule="evenodd" clip-rule="evenodd" d="M8 0C12.4183 0 16 3.58167 16 8C16 12.4183 12.4183 16 8 16C3.58167 16 0 12.4183 0 8C0 3.58167 3.58167 0 8 0Z" fill="#00AED6"/>
<path fill-rule="evenodd" clip-rule="evenodd" d="M10.9995 8.87067V9.16767C10.9995 9.35067 10.8495 9.501 10.6662 9.501C10.4829 9.501 10.3329 9.35067 10.3329 9.16767V8.87067C10.2295 8.78067 10.1662 8.64734 10.1662 8.501C10.1662 8.22434 10.3895 8.001 10.6662 8.001C10.9429 8.001 11.1662 8.22434 11.1662 8.501C11.1662 8.64734 11.1032 8.78067 10.9995 8.87067ZM12.6595 7.751C12.5899 6.73067 11.7565 5.96734 10.7195 6.001H5.6662C5.48287 6.001 5.33286 5.85067 5.33286 5.66767C5.33286 5.484 5.48287 5.33434 5.6662 5.33434H10.7862C10.7529 4.67734 10.2529 3.964 9.61953 3.864C8.11653 3.60067 6.61286 3.60067 5.10953 3.864C4.2762 3.99734 3.64286 4.821 3.50953 5.644C3.27286 7.22434 3.27286 8.804 3.50953 10.3807C3.64286 11.2377 4.4662 12.064 5.33286 12.1607C7.20287 12.391 9.07287 12.391 10.9095 12.1607C11.7429 12.064 12.2895 11.304 12.4562 10.4807C12.6229 9.56067 12.6929 8.63734 12.6595 7.751Z" fill="white"/>
</svg>
