<svg width="16" height="16" viewBox="0 0 16 16" fill="none" xmlns="http://www.w3.org/2000/svg">
<path d="M7.39984 8.16657C7.39984 8.06657 7.39984 7.83324 7.23317 7.6999C7.0665 7.53323 6.89984 7.46657 6.63317 7.46657H5.9665C5.7665 7.46657 5.6665 7.56657 5.6665 7.73324V9.2999C5.6665 9.46657 5.79984 9.56657 5.93317 9.56657C6.09984 9.56657 6.19984 9.43324 6.19984 9.2999V8.8999H6.4665L6.83317 9.43324C6.89984 9.4999 6.99984 9.56657 7.0665 9.56657C7.19984 9.56657 7.33317 9.43324 7.33317 9.2999C7.33317 9.1999 7.29984 9.16657 7.2665 9.13324L7.03317 8.83324C7.2665 8.63324 7.39984 8.46657 7.39984 8.16657ZM6.89984 8.16657C6.89984 8.33324 6.79984 8.3999 6.63317 8.3999H6.19984V7.93323H6.63317C6.83317 7.93323 6.89984 7.9999 6.89984 8.16657Z" fill="#098A4E"/>
<path d="M8.59984 7.89995C8.39984 7.89995 8.2665 7.99995 8.1665 8.09995C8.13317 7.99995 8.03317 7.93328 7.93317 7.93328C7.7665 7.93328 7.6665 8.06661 7.6665 8.19995V9.66661C7.6665 9.83328 7.79984 9.93328 7.93317 9.93328C8.09984 9.93328 8.19984 9.79995 8.19984 9.66661V9.33328C8.29984 9.43328 8.39984 9.49995 8.59984 9.49995C8.93317 9.49995 9.33317 9.23328 9.33317 8.69995C9.33317 8.16661 8.9665 7.89995 8.59984 7.89995ZM8.49984 8.39995C8.69984 8.39995 8.79984 8.53328 8.79984 8.73328C8.79984 8.93328 8.69984 9.06661 8.49984 9.06661C8.29984 9.06661 8.19984 8.93328 8.19984 8.73328C8.19984 8.49995 8.29984 8.39995 8.49984 8.39995Z" fill="#098A4E"/>
<path d="M1.3335 5.66667V7.66667C2.7335 7.5 3.8335 6.4 4.00016 5H2.00016C1.6335 5 1.3335 5.3 1.3335 5.66667Z" fill="#20CE7D"/>
<path d="M1.3335 11.3999V9.66658C2.56683 9.79991 3.5335 10.7666 3.66683 11.9999H1.9335C1.60016 11.9999 1.3335 11.7332 1.3335 11.3999Z" fill="#20CE7D"/>
<path d="M12.9998 6.6V8.33333C11.7665 8.2 10.7998 7.23333 10.6665 6H12.3998C12.7332 6 12.9998 6.26667 12.9998 6.6Z" fill="#20CE7D"/>
<path d="M12.9998 12.3999V10.6666C11.7665 10.7999 10.7998 11.7666 10.6665 12.9999H12.3998C12.7332 12.9999 12.9998 12.7332 12.9998 12.3999Z" fill="#20CE7D"/>
<path d="M13.8998 3.39991C11.7998 3.33325 10.5665 2.96658 9.49984 2.66658C8.59984 2.39991 7.79984 2.16658 6.69984 2.16658C5.23317 2.16658 4.09984 2.39991 3.43317 2.56658C2.79984 2.73325 2.33317 3.33325 2.33317 4.03325V4.46658C2.13317 4.49991 1.93317 4.56658 1.7665 4.59991C1.13317 4.73325 0.666504 5.33325 0.666504 6.03325V6.66658V6.99991V10.3332V10.6666V11.2332C0.666504 11.6999 0.866504 12.0999 1.23317 12.3999C1.59984 12.6999 2.0665 12.7999 2.49984 12.6999C3.29984 12.5332 4.1665 12.4332 5.0665 12.4332C5.99984 12.4332 6.69984 12.6332 7.5665 12.8999C8.63317 13.1999 9.93317 13.5999 12.0998 13.6999C12.1332 13.6999 12.1332 13.6999 12.1665 13.6999C12.5665 13.6999 12.9332 13.5666 13.1998 13.2666C13.4998 12.9666 13.6665 12.5999 13.6665 12.1999V11.6666C13.6998 11.6666 13.7332 11.6666 13.7665 11.6666C13.7998 11.6666 13.7998 11.6666 13.8332 11.6666C14.2332 11.6666 14.5998 11.5332 14.8665 11.2332C15.1665 10.9332 15.3332 10.5666 15.3332 10.1666V4.89991C15.3332 4.09991 14.6998 3.43325 13.8998 3.39991ZM12.6665 12.1666C12.6665 12.2999 12.5998 12.4332 12.4998 12.5332C12.3998 12.6332 12.2665 12.6666 12.1332 12.6666C10.0998 12.5666 8.89984 12.2332 7.83317 11.9332C6.93317 11.6666 6.13317 11.4332 5.03317 11.4332C4.0665 11.4332 3.13317 11.5332 2.2665 11.7332C2.09984 11.7666 1.9665 11.7332 1.83317 11.6332C1.7665 11.5666 1.6665 11.4332 1.6665 11.2332V10.6666V10.3332V6.99991V6.66658V6.03325C1.6665 5.79991 1.83317 5.59991 2.03317 5.56658C2.6665 5.39991 3.69984 5.19991 5.0665 5.19991C5.99984 5.19991 6.69984 5.39991 7.5665 5.66658C8.63317 5.96658 9.9665 6.36658 12.1998 6.46658C12.4665 6.46658 12.6665 6.69991 12.6665 6.96658V12.1666ZM14.3332 10.1666C14.3332 10.2999 14.2665 10.4332 14.1665 10.5332C14.0665 10.6332 13.9332 10.6666 13.7998 10.6666C13.7665 10.6666 13.6998 10.6666 13.6665 10.6666V6.89991C13.6665 6.09991 13.0332 5.43325 12.2332 5.39991C10.1332 5.33325 8.93317 4.96658 7.83317 4.66658C6.93317 4.39991 6.13317 4.16658 5.03317 4.16658C4.39984 4.16658 3.83317 4.19991 3.29984 4.26658V3.99991C3.29984 3.76658 3.4665 3.56658 3.6665 3.53325C4.29984 3.36658 5.33317 3.16658 6.69984 3.16658C7.63317 3.16658 8.33317 3.36658 9.19984 3.63325C10.2665 3.93325 11.5998 4.33325 13.8332 4.43325C14.0998 4.43325 14.2998 4.66658 14.2998 4.93325V10.1666H14.3332Z" fill="#098A4E"/>
</svg>
